HIERARCHY
ROOT Hips
{
  OFFSET -748.717 92.9633 -240.224
  CHANNELS 6 Xposition Yposition Zposition Zrotation Xrotation Yrotation
  JOINT RightUpLeg
  {
    OFFSET -9.36171 -1.53666 0.00311124
    CHANNELS 3 Zrotation Xrotation Yrotation
    JOINT RightLeg
    {
      OFFSET -0.0561546 -41.884 0.13874
      CHANNELS 3 Zrotation Xrotation Yrotation
      JOINT RightFoot
      {
        OFFSET 0.429071 -42.156 -1.14421
        CHANNELS 3 Zrotation Xrotation Yrotation
        End Site
        {
          OFFSET 0 -7.69 17.5
        }
      }
    }
  }
  JOINT LeftUpLeg
  {
    OFFSET 9.2553 -1.57362 0.0631759
    CHANNELS 3 Zrotation Xrotation Yrotation
    JOINT LeftLeg
    {
      OFFSET 0.00470188 -41.899 0.0509182
      CHANNELS 3 Zrotation Xrotation Yrotation
      JOINT LeftFoot
      {
        OFFSET 0.131507 -40.9798 0.125529
        CHANNELS 3 Zrotation Xrotation Yrotation
        End Site
        {
          OFFSET 0 -7.69 17.5
        }
      }
    }
  }
  JOINT Spine
  {
    OFFSET 0.066238 14.3226 -0.0615186
    CHANNELS 3 Zrotation Xrotation Yrotation
    JOINT Spine1
    {
      OFFSET 0.0451734 9.72673 -0.0426275
      CHANNELS 3 Zrotation Xrotation Yrotation
      JOINT Spine2
      {
        OFFSET 0.0378119 10.1277 0.0623278
        CHANNELS 3 Zrotation Xrotation Yrotation
        JOINT Spine3
        {
          OFFSET 0.0216295 9.70879 0.00311684
          CHANNELS 3 Zrotation Xrotation Yrotation
          JOINT Neck
          {
            OFFSET 0.309992 10.371 0.136678
            CHANNELS 3 Zrotation Xrotation Yrotation
            JOINT Head
            {
              OFFSET 0.295744 9.40753 0.148359
              CHANNELS 3 Zrotation Xrotation Yrotation
              End Site
              {
                OFFSET 0 15.95 0
              }
            }
          }
          JOINT RightShoulder
          {
            OFFSET -3.21272 6.91214 0.00707427
            CHANNELS 3 Zrotation Xrotation Yrotation
            JOINT RightArm
            {
              OFFSET -12.8255 -0.0431601 -0.0288219
              CHANNELS 3 Zrotation Xrotation Yrotation
              JOINT RightForeArm
              {
                OFFSET -26.4637 -0.148087 0.097437
                CHANNELS 3 Zrotation Xrotation Yrotation
                JOINT RightHand
                {
                  OFFSET -25.9369 -0.0395697 0.129231
                  CHANNELS 3 Zrotation Xrotation Yrotation
                  JOINT RightHandThumb1
                  {
                    OFFSET -2.48905 0.190105 3.12053
                    CHANNELS 3 Zrotation Xrotation Yrotation
                    JOINT RightHandThumb2
                    {
                      OFFSET -3.68274 0 0
                      CHANNELS 3 Zrotation Xrotation Yrotation
                      JOINT RightHandThumb3
                      {
                        OFFSET -2.55832 0 0
                        CHANNELS 3 Zrotation Xrotation Yrotation
                        End Site
                        {
                          OFFSET -2.194 0 0
                        }
                      }
                    }
                  }
                  JOINT RightInHandIndex
                  {
                    OFFSET -3.22368 0.508421 1.97842
                    CHANNELS 3 Zrotation Xrotation Yrotation
                    JOINT RightHandIndex1
                    {
                      OFFSET -5.21684 -0.091368 0.999158
                      CHANNELS 3 Zrotation Xrotation Yrotation
                      JOINT RightHandIndex2
                      {
                        OFFSET -3.61937 0 0
                        CHANNELS 3 Zrotation Xrotation Yrotation
                        JOINT RightHandIndex3
                        {
                          OFFSET -2.0521 0 0
                          CHANNELS 3 Zrotation Xrotation Yrotation
                          End Site
                          {
                            OFFSET -1.805 0 0
                          }
                        }
                      }
                    }
                  }
                  JOINT RightInHandMiddle
                  {
                    OFFSET -3.38211 0.517263 0.756737
                    CHANNELS 3 Zrotation Xrotation Yrotation
                    JOINT RightHandMiddle1
                    {
                      OFFSET -5.17411 -0.084 0.313895
                      CHANNELS 3 Zrotation Xrotation Yrotation
                      JOINT RightHandMiddle2
                      {
                        OFFSET -3.94947 0 0
                        CHANNELS 3 Zrotation Xrotation Yrotation
                        JOINT RightHandMiddle3
                        {
                          OFFSET -2.47579 0 0
                          CHANNELS 3 Zrotation Xrotation Yrotation
                          End Site
                          {
                            OFFSET -1.975 0 0
                          }
                        }
                      }
                    }
                  }
                  JOINT RightInHandRing
                  {
                    OFFSET -3.36516 0.537895 -0.128947
                    CHANNELS 3 Zrotation Xrotation Yrotation
                    JOINT RightHandRing1
                    {
                      OFFSET -4.63474 -0.022105 -0.478947
                      CHANNELS 3 Zrotation Xrotation Yrotation
                      JOINT RightHandRing2
                      {
                        OFFSET -3.44238 0 0
                        CHANNELS 3 Zrotation Xrotation Yrotation
                        JOINT RightHandRing3
                        {
                          OFFSET -2.3881 0 0
                          CHANNELS 3 Zrotation Xrotation Yrotation
                          End Site
                          {
                            OFFSET -1.857 0 0
                          }
                        }
                      }
                    }
                  }
                  JOINT RightInHandPinky
                  {
                    OFFSET -3.16105 0.469368 -1.20179
                    CHANNELS 3 Zrotation Xrotation Yrotation
                    JOINT RightHandPinky1
                    {
                      OFFSET -4.14105 -0.022105 -1.09053
                      CHANNELS 3 Zrotation Xrotation Yrotation
                      JOINT RightHandPinky2
                      {
                        OFFSET -2.75653 0 0
                        CHANNELS 3 Zrotation Xrotation Yrotation
                        JOINT RightHandPinky3
                        {
                          OFFSET -1.74189 0 0
                          CHANNELS 3 Zrotation Xrotation Yrotation
                          End Site
                          {
                            OFFSET -1.645 0 0
                          }
                        }
                      }
                    }
                  }
                }
              }
            }
          }
          JOINT LeftShoulder
          {
            OFFSET 3.19832 6.90534 -0.0247256
            CHANNELS 3 Zrotation Xrotation Yrotation
            JOINT LeftArm
            {
              OFFSET 12.7317 -0.0547177 -0.0299584
              CHANNELS 3 Zrotation Xrotation Yrotation
              JOINT LeftForeArm
              {
                OFFSET 26.4979 -0.0533964 0.00496608
                CHANNELS 3 Zrotation Xrotation Yrotation
                JOINT LeftHand
                {
                  OFFSET 25.8938 -0.037803 0.0431178
                  CHANNELS 3 Zrotation Xrotation Yrotation
                  JOINT LeftHandThumb1
                  {
                    OFFSET 2.48905 0.190105 3.12053
                    CHANNELS 3 Zrotation Xrotation Yrotation
                    JOINT LeftHandThumb2
                    {
                      OFFSET 3.68274 0 0
                      CHANNELS 3 Zrotation Xrotation Yrotation
                      JOINT LeftHandThumb3
                      {
                        OFFSET 2.55832 0 0
                        CHANNELS 3 Zrotation Xrotation Yrotation
                        End Site
                        {
                          OFFSET 2.194 0 0
                        }
                      }
                    }
                  }
                  JOINT LeftInHandIndex
                  {
                    OFFSET 3.22368 0.508421 1.97842
                    CHANNELS 3 Zrotation Xrotation Yrotation
                    JOINT LeftHandIndex1
                    {
                      OFFSET 5.21684 -0.091368 0.999158
                      CHANNELS 3 Zrotation Xrotation Yrotation
                      JOINT LeftHandIndex2
                      {
                        OFFSET 3.61937 0 0
                        CHANNELS 3 Zrotation Xrotation Yrotation
                        JOINT LeftHandIndex3
                        {
                          OFFSET 2.0521 0 0
                          CHANNELS 3 Zrotation Xrotation Yrotation
                          End Site
                          {
                            OFFSET 1.805 0 0
                          }
                        }
                      }
                    }
                  }
                  JOINT LeftInHandMiddle
                  {
                    OFFSET 3.38211 0.517263 0.756737
                    CHANNELS 3 Zrotation Xrotation Yrotation
                    JOINT LeftHandMiddle1
                    {
                      OFFSET 5.17411 -0.084 0.313895
                      CHANNELS 3 Zrotation Xrotation Yrotation
                      JOINT LeftHandMiddle2
                      {
                        OFFSET 3.94947 0 0
                        CHANNELS 3 Zrotation Xrotation Yrotation
                        JOINT LeftHandMiddle3
                        {
                          OFFSET 2.47579 0 0
                          CHANNELS 3 Zrotation Xrotation Yrotation
                          End Site
                          {
                            OFFSET 1.975 0 0
                          }
                        }
                      }
                    }
                  }
                  JOINT LeftInHandRing
                  {
                    OFFSET 3.36516 0.537895 -0.128947
                    CHANNELS 3 Zrotation Xrotation Yrotation
                    JOINT LeftHandRing1
                    {
                      OFFSET 4.63474 -0.022105 -0.478947
                      CHANNELS 3 Zrotation Xrotation Yrotation
                      JOINT LeftHandRing2
                      {
                        OFFSET 3.44238 0 0
                        CHANNELS 3 Zrotation Xrotation Yrotation
                        JOINT LeftHandRing3
                        {
                          OFFSET 2.3881 0 0
                          CHANNELS 3 Zrotation Xrotation Yrotation
                          End Site
                          {
                            OFFSET 1.857 0 0
                          }
                        }
                      }
                    }
                  }
                  JOINT LeftInHandPinky
                  {
                    OFFSET 3.16105 0.469368 -1.20179
                    CHANNELS 3 Zrotation Xrotation Yrotation
                    JOINT LeftHandPinky1
                    {
                      OFFSET 4.14105 -0.022105 -1.09053
                      CHANNELS 3 Zrotation Xrotation Yrotation
                      JOINT LeftHandPinky2
                      {
                        OFFSET 2.75653 0 0
                        CHANNELS 3 Zrotation Xrotation Yrotation
                        JOINT LeftHandPinky3
                        {
                          OFFSET 1.74189 0 0
                          CHANNELS 3 Zrotation Xrotation Yrotation
                          End Site
                          {
                            OFFSET 1.645 0 0
                          }
                        }
                      }
                    }
                  }
                }
              }
            }
          }
        }
      }
    }
  }
}
MOTION
Frames:	5
Frame Time:	0.00833333
-694.793 88.4092 -205.131 14.139 -24.0746 -147.027 -27.7293 -44.5591 -26.3569 1.7504 27.2552 4.36566 14.2134 -1.23301 8.13361 29.8313 -46.2789 25.962 -0.137488 29.1138 -13.0874 -10.1605 -1.34932 2.08837 2.58517 14.1919 6.07399 0.774339 3.57233 1.79061 1.20774 5.85192 3.1586 -0.202661 -0.411167 -0.715138 -0.203109 -0.415942 -0.712555 -4.53308 -7.2432 -12.5004 0.894253 -7.31247 8.56171 58.207 16.5886 61.7151 -15.5207 -46.0457 -29.9157 15.5137 -14.9132 -15.8912 28.184 10.7294 19.1592 2.70808e-15 -2.38542e-15 -10 -7.03397e-15 -3.97569e-16 -10 2.38542e-15 -3.97569e-15 -0 19.9818 0.871897 2.3964 24 -3.18055e-15 -3.18055e-15 20 0 3.18055e-15 2.38542e-15 -3.97569e-15 -0 20 5.1684e-15 -0 24 -4.77083e-15 -1.59028e-14 20 0 6.36111e-15 2.38542e-15 -3.97569e-15 -0 19.9748 -1.02565 -2.81938 24 0 1.59028e-14 20 3.18055e-15 6.36111e-15 2.38542e-15 -3.97569e-15 -0 19.7815 -3.00948 -8.30515 24 -6.36111e-15 3.18055e-15 20 3.18055e-15 -0 -9.00364 -10.9459 -14.3041 -9.85872 48.1175 -95.9908 2.75087 -82.8819 5.6432 6.76248 -1.04705 28.3357 -28.184 10.7294 -19.1592 -6.5029e-16 -3.18055e-15 10 3.99229e-15 -3.18055e-15 10 7.95139e-15 3.18055e-15 -3.18055e-15 -19.9818 0.871897 -2.3964 -24 -6.36111e-15 -0 -20 -6.36111e-15 6.36111e-15 7.95139e-15 3.18055e-15 -3.18055e-15 -20 0 -1.19271e-14 -24 3.18055e-15 1.51076e-14 -20 -9.54166e-15 3.18055e-15 7.95139e-15 3.18055e-15 -3.18055e-15 -19.9748 -1.02565 2.81938 -24 -9.54166e-15 1.43125e-14 -20 0 6.36111e-15 7.95139e-15 3.18055e-15 -3.18055e-15 -19.7815 -3.00948 8.30515 -24 6.36111e-15 7.95139e-16 -20 0 -3.18055e-15 
-694.791 88.4153 -205.135 14.1457 -24.0795 -147.021 -27.7275 -44.5459 -26.3516 1.76342 27.2365 4.35132 14.2117 -1.22263 8.13151 29.8158 -46.2591 25.9341 -0.13002 29.0311 -13.096 -10.1808 -1.31253 2.11133 2.58068 14.1832 6.07364 0.774157 3.56985 1.79074 1.20764 5.85141 3.15922 -0.20237 -0.411274 -0.715039 -0.202817 -0.415978 -0.712457 -4.51525 -7.26157 -12.5083 0.893692 -7.31303 8.56132 58.2134 16.5813 61.7138 -15.5274 -46.0513 -29.9275 15.4929 -14.8763 -15.895 28.184 10.7294 19.1592 -3.55054e-15 2.18663e-15 -10 -7.48963e-15 -2.98177e-15 -10 3.18055e-15 -7.95139e-16 3.18055e-15 19.9818 0.871897 2.3964 24 3.18055e-15 -1.27222e-14 20 -3.18055e-15 -1.27222e-14 3.18055e-15 -7.95139e-16 3.18055e-15 20 -5.56597e-15 6.36111e-15 24 0 -0 20 6.36111e-15 6.36111e-15 3.18055e-15 -7.95139e-16 3.18055e-15 19.9748 -1.02565 -2.81938 24 0 -1.27222e-14 20 -9.54166e-15 -6.36111e-15 3.18055e-15 -7.95139e-16 3.18055e-15 19.7815 -3.00948 -8.30515 24 -6.36111e-15 3.18055e-15 20 3.18055e-15 1.27222e-14 -9.00343 -10.9439 -14.2945 -9.84516 48.1199 -96.0106 2.72865 -82.879 5.62725 6.77149 -1.06058 28.3336 -28.184 10.7294 -19.1592 -5.56236e-15 6.36111e-15 10 9.6452e-16 -3.18055e-15 10 0 0 -6.36111e-15 -19.9818 0.871897 -2.3964 -24 3.18055e-15 -3.18055e-15 -20 -3.18055e-15 -0 0 0 -6.36111e-15 -20 3.18055e-15 -7.95139e-15 -24 3.18055e-15 -1.59028e-15 -20 3.18055e-15 -3.18055e-15 0 0 -6.36111e-15 -19.9748 -1.02565 2.81938 -24 0 3.97569e-15 -20 3.18055e-15 4.77083e-15 0 0 -6.36111e-15 -19.7815 -3.00948 8.30515 -24 -3.18055e-15 -5.36719e-15 -20 9.54166e-15 4.77083e-15 
-694.789 88.4225 -205.136 14.1541 -24.089 -147.016 -27.7362 -44.5343 -26.3486 1.77604 27.2167 4.34158 14.2166 -1.20797 8.12951 29.8016 -46.2423 25.9043 -0.144805 28.9756 -13.0654 -10.1845 -1.29134 2.10822 2.57776 14.1739 6.07322 0.77398 3.56713 1.79088 1.20757 5.85058 3.15978 -0.202102 -0.411381 -0.71494 -0.202548 -0.416013 -0.71236 -4.49908 -7.2752 -12.5176 0.892888 -7.31068 8.5609 58.2187 16.5734 61.7134 -15.5388 -46.0523 -29.9335 15.4727 -14.8481 -15.9083 28.184 10.7294 19.1592 1.07078e-14 -3.37934e-15 -10 8.60105e-15 -1.59028e-15 -10 2.38542e-15 -2.38542e-15 -6.36111e-15 19.9818 0.871897 2.3964 24 3.18055e-15 6.36111e-15 20 3.18055e-15 -6.36111e-15 2.38542e-15 -2.38542e-15 -6.36111e-15 20 4.37326e-15 -0 24 -1.11319e-14 -1.27222e-14 20 -3.18055e-15 -9.54166e-15 2.38542e-15 -2.38542e-15 -6.36111e-15 19.9748 -1.02565 -2.81938 24 3.18055e-15 9.54166e-15 20 3.18055e-15 -3.18055e-15 2.38542e-15 -2.38542e-15 -6.36111e-15 19.7815 -3.00948 -8.30515 24 6.36111e-15 -3.18055e-15 20 0 -0 -9.01082 -10.9494 -14.2849 -9.81151 48.1262 -96.0519 2.84243 -82.8783 5.74744 6.76433 -1.11937 28.3272 -28.184 10.7294 -19.1592 -1.83237e-14 3.18055e-15 10 -7.93984e-15 9.54166e-15 10 1.59028e-15 0 -3.18055e-15 -19.9818 0.871897 -2.3964 -24 3.18055e-15 -2.38542e-15 -20 -3.18055e-15 -3.18055e-15 1.59028e-15 0 -3.18055e-15 -20 6.36111e-15 -4.77083e-15 -24 3.18055e-15 1.59028e-15 -20 9.54166e-15 -0 1.59028e-15 0 -3.18055e-15 -19.9748 -1.02565 2.81938 -24 3.18055e-15 7.15625e-15 -20 -6.36111e-15 -4.77083e-15 1.59028e-15 0 -3.18055e-15 -19.7815 -3.00948 8.30515 -24 3.18055e-15 -1.98785e-15 -20 3.18055e-15 -0 
-694.787 88.4289 -205.137 14.1632 -24.0925 -147.004 -27.7379 -44.5153 -26.3552 1.78268 27.1812 4.35228 14.2409 -1.16345 8.1132 29.7916 -46.2238 25.8701 -0.16449 28.9103 -13.0265 -10.1856 -1.26272 2.10061 2.57655 14.165 6.07276 0.773805 3.56435 1.79101 1.20709 5.8465 3.16023 -0.20186 -0.411489 -0.714841 -0.202304 -0.416049 -0.712262 -4.48097 -7.28674 -12.5261 0.89237 -7.30798 8.56048 58.2219 16.5657 61.7211 -15.5534 -46.0581 -29.9407 15.4595 -14.827 -15.9203 28.184 10.7294 19.1592 8.34001e-16 -9.93923e-16 -10 5.35329e-15 5.96354e-16 -10 3.53113e-31 -3.18055e-15 6.36111e-15 19.9818 0.871897 2.3964 24 0 -6.36111e-15 20 0 3.18055e-15 3.53113e-31 -3.18055e-15 6.36111e-15 20 4.37326e-15 6.36111e-15 24 1.59028e-15 6.36111e-15 20 3.18055e-15 -3.18055e-15 3.53113e-31 -3.18055e-15 6.36111e-15 19.9748 -1.02565 -2.81938 24 -6.36111e-15 6.36111e-15 20 0 3.18055e-15 3.53113e-31 -3.18055e-15 6.36111e-15 19.7815 -3.00948 -8.30515 24 -3.18055e-15 -6.36111e-15 20 -3.18055e-15 -0 -9.02874 -10.9579 -14.2706 -9.75701 48.1352 -96.0965 2.87703 -82.8478 5.77509 6.75334 -1.18272 28.3377 -28.184 10.7294 -19.1592 -1.73592e-14 0 10 2.01851e-15 0 10 -1.59028e-15 -6.36111e-15 -3.18055e-15 -19.9818 0.871897 -2.3964 -24 -3.18055e-15 6.36111e-15 -20 0 3.18055e-15 -1.59028e-15 -6.36111e-15 -3.18055e-15 -20 -3.18055e-15 7.15625e-15 -24 -6.36111e-15 1.27222e-14 -20 0 9.54166e-15 -1.59028e-15 -6.36111e-15 -3.18055e-15 -19.9748 -1.02565 2.81938 -24 9.54166e-15 1.11319e-14 -20 0 6.36111e-15 -1.59028e-15 -6.36111e-15 -3.18055e-15 -19.7815 -3.00948 8.30515 -24 -3.18055e-15 1.39149e-15 -20 -3.18055e-15 1.59028e-15 
-694.785 88.4341 -205.137 14.1732 -24.1064 -147 -27.7473 -44.5092 -26.3573 1.80176 27.1386 4.35042 14.2406 -1.14568 8.09889 29.7915 -46.2163 25.841 -0.1958 28.8517 -12.966 -10.1867 -1.22791 2.08883 2.56881 14.1545 6.07225 0.773613 3.56207 1.79114 1.20475 5.8418 3.16058 -0.201644 -0.411597 -0.714742 -0.202087 -0.416083 -0.712164 -4.46085 -7.29922 -12.5348 0.892149 -7.30525 8.56008 58.2142 16.5577 61.7301 -15.5561 -46.0715 -29.9456 15.4427 -14.7831 -15.9281 28.184 10.7294 19.1592 3.07005e-16 5.96354e-16 -10 2.3648e-15 1.39149e-15 -10 0 3.18055e-15 -0 19.9818 0.871897 2.3964 24 -1.59028e-15 -6.36111e-15 20 -3.18055e-15 -6.36111e-15 0 3.18055e-15 -0 20 4.77083e-15 6.36111e-15 24 1.59028e-15 -0 20 3.18055e-15 -3.18055e-15 0 3.18055e-15 -0 19.9748 -1.02565 -2.81938 24 4.77083e-15 1.59028e-14 20 -3.18055e-15 3.18055e-15 0 3.18055e-15 -0 19.7815 -3.00948 -8.30515 24 0 -3.18055e-15 20 -3.18055e-15 -9.54166e-15 -9.02875 -10.958 -14.2696 -9.73359 48.1212 -96.1194 2.95183 -82.8426 5.86286 6.74002 -1.20308 28.3369 -28.184 10.7294 -19.1592 4.44073e-15 0 10 -1.8614e-15 -3.18055e-15 10 -3.18055e-15 -3.18055e-15 6.36111e-15 -19.9818 0.871897 -2.3964 -24 3.18055e-15 5.56597e-15 -20 0 6.36111e-15 -3.18055e-15 -3.18055e-15 6.36111e-15 -20 -3.18055e-15 -0 -24 -3.18055e-15 1.11319e-14 -20 0 -0 -3.18055e-15 -3.18055e-15 6.36111e-15 -19.9748 -1.02565 2.81938 -24 -6.36111e-15 -3.97569e-15 -20 -1.27222e-14 -3.18055e-15 -3.18055e-15 -3.18055e-15 6.36111e-15 -19.7815 -3.00948 8.30515 -24 6.36111e-15 -1.78906e-15 -20 3.18055e-15 3.18055e-15 
